STARTFONT 2.1
COMMENT 
COMMENT  This font is copyrighted by Roar Lauritzsen, who reserves all rights
COMMENT  under national and international copyright laws.
COMMENT 
COMMENT  Produced with bdfedit, a tcl/tk font editing program
COMMENT    written by Thomas A. Fine
COMMENT    fine@head-cfa.harvard.edu
COMMENT    http://hea-www.harvard.edu/~fine/
FONT -misc-nethack-medium-r-normal--24-160-100-100-c-160--custom
SIZE 24 72 72
FONTBOUNDINGBOX 16 25 0 -3
STARTPROPERTIES 12
FOUNDRY "Misc"
FAMILY_NAME "Nethack"
WEIGHT_NAME "Medium"
SLANT "R"
SETWIDTH_NAME "Normal"
SPACING "c"
CHARSET_REGISTRY "ISO-8859"
CHARSET_ENCODING "1"
COPYRIGHT "Designer of this font, Roar Lauritzsen, retains full rights under the law"
FONT_ASCENT 13
FONT_DESCENT 3
_GBDFED_INFO "Edited with gbdfed 1.6."
ENDPROPERTIES
CHARS 206
STARTCHAR char11
ENCODING 11
SWIDTH 666 0
DWIDTH 16 0
BBX 16 25 0 -3
BITMAP
0100
0100
0100
0100
0100
0100
0100
0100
0100
0100
0100
0100
FF00
0000
0000
0000
0000
0000
0000
0000
0000
0000
0000
0000
0000
ENDCHAR
STARTCHAR char12
ENCODING 12
SWIDTH 666 0
DWIDTH 16 0
BBX 16 25 0 -3
BITMAP
0000
0000
0000
0000
0000
0000
0000
0000
0000
0000
0000
0000
FF00
0100
0100
0100
0100
0100
0100
0100
0100
0100
0100
0100
0000
ENDCHAR
STARTCHAR char13
ENCODING 13
SWIDTH 666 0
DWIDTH 16 0
BBX 16 25 0 -3
BITMAP
0000
0000
0000
0000
0000
0000
0000
0000
0000
0000
0000
0000
01FF
0100
0100
0100
0100
0100
0100
0100
0100
0100
0100
0100
0000
ENDCHAR
STARTCHAR char14
ENCODING 14
SWIDTH 666 0
DWIDTH 16 0
BBX 16 25 0 -3
BITMAP
0100
0100
0100
0100
0100
0100
0100
0100
0100
0100
0100
0100
01FF
0000
0000
0000
0000
0000
0000
0000
0000
0000
0000
0000
0000
ENDCHAR
STARTCHAR char15
ENCODING 15
SWIDTH 666 0
DWIDTH 16 0
BBX 16 25 0 -3
BITMAP
0100
0100
0100
0100
0100
0100
0100
0100
0100
0100
0100
0100
FFFF
0100
0100
0100
0100
0100
0100
0100
0100
0100
0100
0100
0000
ENDCHAR
STARTCHAR char16
ENCODING 16
SWIDTH 666 0
DWIDTH 16 0
BBX 16 25 0 -3
BITMAP
0000
0000
FFFF
0000
0000
0000
0000
0000
0000
0000
0000
0000
0000
0000
0000
0000
0000
0000
0000
0000
0000
0000
0000
0000
0000
ENDCHAR
STARTCHAR char17
ENCODING 17
SWIDTH 666 0
DWIDTH 16 0
BBX 16 25 0 -3
BITMAP
0000
0000
0000
0000
0000
0000
0000
FFFF
0000
0000
0000
0000
0000
0000
0000
0000
0000
0000
0000
0000
0000
0000
0000
0000
0000
ENDCHAR
STARTCHAR char18
ENCODING 18
SWIDTH 666 0
DWIDTH 16 0
BBX 16 25 0 -3
BITMAP
0000
0000
0000
0000
0000
0000
0000
0000
0000
0000
0000
0000
FFFF
0000
0000
0000
0000
0000
0000
0000
0000
0000
0000
0000
0000
ENDCHAR
STARTCHAR char19
ENCODING 19
SWIDTH 666 0
DWIDTH 16 0
BBX 16 25 0 -3
BITMAP
0000
0000
0000
0000
0000
0000
0000
0000
0000
0000
0000
0000
0000
0000
0000
0000
0000
FFFF
0000
0000
0000
0000
0000
0000
0000
ENDCHAR
STARTCHAR char20
ENCODING 20
SWIDTH 666 0
DWIDTH 16 0
BBX 16 25 0 -3
BITMAP
0000
0000
0000
0000
0000
0000
0000
0000
0000
0000
0000
0000
0000
0000
0000
0000
0000
0000
0000
0000
0000
0000
FFFF
0000
0000
ENDCHAR
STARTCHAR char21
ENCODING 21
SWIDTH 666 0
DWIDTH 16 0
BBX 16 25 0 -3
BITMAP
0100
0100
0100
0100
0100
0100
0100
0100
0100
0100
0100
0100
01FF
0100
0100
0100
0100
0100
0100
0100
0100
0100
0100
0100
0000
ENDCHAR
STARTCHAR char22
ENCODING 22
SWIDTH 666 0
DWIDTH 16 0
BBX 16 25 0 -3
BITMAP
0100
0100
0100
0100
0100
0100
0100
0100
0100
0100
0100
0100
FF00
0100
0100
0100
0100
0100
0100
0100
0100
0100
0100
0100
0000
ENDCHAR
STARTCHAR char23
ENCODING 23
SWIDTH 666 0
DWIDTH 16 0
BBX 16 25 0 -3
BITMAP
0100
0100
0100
0100
0100
0100
0100
0100
0100
0100
0100
0100
FFFF
0000
0000
0000
0000
0000
0000
0000
0000
0000
0000
0000
0000
ENDCHAR
STARTCHAR char24
ENCODING 24
SWIDTH 666 0
DWIDTH 16 0
BBX 16 25 0 -3
BITMAP
0000
0000
0000
0000
0000
0000
0000
0000
0000
0000
0000
0000
FFFF
0100
0100
0100
0100
0100
0100
0100
0100
0100
0100
0100
0000
ENDCHAR
STARTCHAR char25
ENCODING 25
SWIDTH 666 0
DWIDTH 16 0
BBX 16 25 0 -3
BITMAP
0100
0100
0100
0100
0100
0100
0100
0100
0100
0100
0100
0100
0100
0100
0100
0100
0100
0100
0100
0100
0100
0100
0100
0100
0000
ENDCHAR
STARTCHAR C040
ENCODING 32
SWIDTH 666 0
DWIDTH 16 0
BBX 16 25 0 -3
BITMAP
0000
0000
0000
0000
0000
0000
0000
0000
0000
0000
0000
0000
0000
0000
0000
0000
0000
0000
0000
0000
0000
0000
0000
0000
0000
ENDCHAR
STARTCHAR C041
ENCODING 33
SWIDTH 666 0
DWIDTH 16 0
BBX 16 25 0 -3
BITMAP
0000
0000
0000
0000
0000
0000
0000
0000
0000
0000
0180
0180
0180
0180
0180
0180
0180
0100
0100
0000
0180
0180
0000
0000
0000
ENDCHAR
STARTCHAR C042
ENCODING 34
SWIDTH 666 0
DWIDTH 16 0
BBX 16 25 0 -3
BITMAP
0000
0000
0000
0000
0000
0000
0000
0000
0000
0000
0660
0660
0CC0
0880
0000
0000
0000
0000
0000
0000
0000
0000
0000
0000
0000
ENDCHAR
STARTCHAR C043
ENCODING 35
SWIDTH 666 0
DWIDTH 16 0
BBX 16 25 0 -3
BITMAP
0000
0000
0000
0000
0000
0000
0000
0000
0000
0000
0000
0660
0660
0660
3FFC
3FFC
0660
0660
3FFC
3FFC
0660
0660
0660
0000
0000
ENDCHAR
STARTCHAR C044
ENCODING 36
SWIDTH 666 0
DWIDTH 16 0
BBX 16 25 0 -3
BITMAP
0000
0000
0000
0000
0000
0000
0000
0000
0000
0000
0100
07C0
1930
3118
3100
1900
0FE0
0130
0118
3118
1930
07C0
0100
0000
0000
ENDCHAR
STARTCHAR C045
ENCODING 37
SWIDTH 666 0
DWIDTH 16 0
BBX 16 25 0 -3
BITMAP
0000
0000
0000
0000
0000
0000
0000
0000
0000
0000
0E00
130C
3318
3230
1C60
00C0
0180
0338
064C
0CCC
18C8
3070
0000
0000
0000
ENDCHAR
STARTCHAR C046
ENCODING 38
SWIDTH 666 0
DWIDTH 16 0
BBX 16 25 0 -3
BITMAP
0000
0000
0000
0000
0000
0000
0000
0000
0000
0000
0000
1010
1830
0FE0
0FE0
0922
0FE4
1EF4
1FF4
1BB0
1BB0
07C0
0EE0
1C70
0000
ENDCHAR
STARTCHAR C047
ENCODING 39
SWIDTH 666 0
DWIDTH 16 0
BBX 16 25 0 -3
BITMAP
0000
0000
0000
0000
0000
0000
0000
0000
0000
0000
0380
0380
0180
0300
0200
0000
0000
0000
0000
0000
0000
0000
0000
0000
0000
ENDCHAR
STARTCHAR C050
ENCODING 40
SWIDTH 666 0
DWIDTH 16 0
BBX 16 25 0 -3
BITMAP
0000
0000
0000
0000
0000
0000
0000
0000
0000
0000
01C0
0300
0300
0600
0600
0600
0600
0600
0600
0600
0300
0300
01C0
0000
0000
ENDCHAR
STARTCHAR C051
ENCODING 41
SWIDTH 666 0
DWIDTH 16 0
BBX 16 25 0 -3
BITMAP
0000
0000
0000
0000
0000
0000
0000
0000
0000
0000
0380
00C0
00C0
0060
0060
0060
0060
0060
0060
0060
00C0
00C0
0380
0000
0000
ENDCHAR
STARTCHAR C052
ENCODING 42
SWIDTH 666 0
DWIDTH 16 0
BBX 16 25 0 -3
BITMAP
0000
0000
0000
0000
0000
0000
0000
0000
0000
0000
0000
0000
0180
0180
1998
1DB8
03C0
03C0
1DB8
1998
0180
0180
0000
0000
0000
ENDCHAR
STARTCHAR C053
ENCODING 43
SWIDTH 666 0
DWIDTH 16 0
BBX 16 25 0 -3
BITMAP
0000
0000
0000
0000
0000
0000
0000
0000
0000
0000
0000
0180
0180
0180
0180
0180
3FFC
3FFC
0180
0180
0180
0180
0180
0000
0000
ENDCHAR
STARTCHAR C054
ENCODING 44
SWIDTH 666 0
DWIDTH 16 0
BBX 16 25 0 -3
BITMAP
0000
0000
0000
0000
0000
0000
0000
0000
0000
0000
0000
0000
0000
0000
0000
0000
0000
0000
0000
0380
0380
0180
0300
0200
0000
ENDCHAR
STARTCHAR C055
ENCODING 45
SWIDTH 666 0
DWIDTH 16 0
BBX 16 25 0 -3
BITMAP
0000
0000
0000
0000
0000
0000
0000
0000
0000
0000
0000
0000
0000
0000
0000
0000
FFFF
FFFF
0000
0000
0000
0000
0000
0000
0000
ENDCHAR
STARTCHAR C056
ENCODING 46
SWIDTH 666 0
DWIDTH 16 0
BBX 16 25 0 -3
BITMAP
0000
0000
0000
0000
0000
0000
0000
0000
0000
0000
0000
0000
0000
0000
0000
0000
0000
0000
0000
0380
0380
0380
0000
0000
0000
ENDCHAR
STARTCHAR C057
ENCODING 47
SWIDTH 666 0
DWIDTH 16 0
BBX 16 25 0 -3
BITMAP
0000
0000
0000
0000
0000
0000
0000
0000
0000
0001
0003
0006
000C
0018
0030
0060
00C0
0180
0300
0600
0C00
1800
3000
6000
C000
ENDCHAR
STARTCHAR C060
ENCODING 48
SWIDTH 666 0
DWIDTH 16 0
BBX 16 25 0 -3
BITMAP
0000
0000
0000
0000
0000
0000
0000
0000
0000
0000
03C0
0420
0C30
0810
1818
1818
1818
1818
0810
0C30
0420
03C0
0000
0000
0000
ENDCHAR
STARTCHAR C061
ENCODING 49
SWIDTH 666 0
DWIDTH 16 0
BBX 16 25 0 -3
BITMAP
0000
0000
0000
0000
0000
0000
0000
0000
0000
0000
0180
0380
0780
0980
0180
0180
0180
0180
0180
0180
0180
0FF0
0000
0000
0000
ENDCHAR
STARTCHAR C062
ENCODING 50
SWIDTH 666 0
DWIDTH 16 0
BBX 16 25 0 -3
BITMAP
0000
0000
0000
0000
0000
0000
0000
0000
0000
0000
07C0
1830
3018
0018
0018
0030
00C0
0380
0E00
1800
3000
3FF8
0000
0000
0000
ENDCHAR
STARTCHAR C063
ENCODING 51
SWIDTH 666 0
DWIDTH 16 0
BBX 16 25 0 -3
BITMAP
0000
0000
0000
0000
0000
0000
0000
0000
0000
0000
07C0
1830
3018
0018
0030
03C0
0030
0018
0018
3018
1830
07C0
0000
0000
0000
ENDCHAR
STARTCHAR C064
ENCODING 52
SWIDTH 666 0
DWIDTH 16 0
BBX 16 25 0 -3
BITMAP
0000
0000
0000
0000
0000
0000
0000
0000
0000
0000
0060
00E0
01E0
0360
0660
0C60
1860
3060
3FF8
0060
0060
0060
0000
0000
0000
ENDCHAR
STARTCHAR C065
ENCODING 53
SWIDTH 666 0
DWIDTH 16 0
BBX 16 25 0 -3
BITMAP
0000
0000
0000
0000
0000
0000
0000
0000
0000
0000
3FF0
3000
3000
3000
3000
3FC0
0030
0018
0018
3018
1830
07C0
0000
0000
0000
ENDCHAR
STARTCHAR C066
ENCODING 54
SWIDTH 666 0
DWIDTH 16 0
BBX 16 25 0 -3
BITMAP
0000
0000
0000
0000
0000
0000
0000
0000
0000
0000
03C0
0C30
1818
1800
3000
33C0
3C30
3018
3018
3018
1830
07C0
0000
0000
0000
ENDCHAR
STARTCHAR C067
ENCODING 55
SWIDTH 666 0
DWIDTH 16 0
BBX 16 25 0 -3
BITMAP
0000
0000
0000
0000
0000
0000
0000
0000
0000
0000
3FF8
0018
0018
0030
0060
00C0
0180
0300
0600
0C00
0C00
0C00
0000
0000
0000
ENDCHAR
STARTCHAR C070
ENCODING 56
SWIDTH 666 0
DWIDTH 16 0
BBX 16 25 0 -3
BITMAP
0000
0000
0000
0000
0000
0000
0000
0000
0000
0000
07C0
1830
3018
3018
1830
07C0
1830
3018
3018
3018
1830
07C0
0000
0000
0000
ENDCHAR
STARTCHAR C071
ENCODING 57
SWIDTH 666 0
DWIDTH 16 0
BBX 16 25 0 -3
BITMAP
0000
0000
0000
0000
0000
0000
0000
0000
0000
0000
07C0
1830
3018
3018
3018
1878
0798
0018
0030
3030
1860
0780
0000
0000
0000
ENDCHAR
STARTCHAR C072
ENCODING 58
SWIDTH 666 0
DWIDTH 16 0
BBX 16 25 0 -3
BITMAP
0000
0000
0000
0000
0000
0000
0000
0000
0000
0000
0000
0000
0000
0380
0380
0380
0000
0000
0000
0380
0380
0380
0000
0000
0000
ENDCHAR
STARTCHAR C073
ENCODING 59
SWIDTH 666 0
DWIDTH 16 0
BBX 16 25 0 -3
BITMAP
0000
0000
0000
0000
0000
0000
0000
0000
0000
0000
0000
0000
0000
0380
0380
0380
0000
0000
0000
0380
0380
0180
0300
0200
0000
ENDCHAR
STARTCHAR C074
ENCODING 60
SWIDTH 666 0
DWIDTH 16 0
BBX 16 25 0 -3
BITMAP
0000
0000
0000
0000
0000
0000
0000
0000
0000
0000
0000
0060
00E0
01C0
0380
0700
0E00
0E00
0700
0380
01C0
00E0
0060
0000
0000
ENDCHAR
STARTCHAR C075
ENCODING 61
SWIDTH 666 0
DWIDTH 16 0
BBX 16 25 0 -3
BITMAP
0000
0000
0000
0000
0000
0000
0000
0000
0000
0000
0000
0000
0000
0000
3FFC
3FFC
0000
0000
0000
3FFC
3FFC
0000
0000
0000
0000
ENDCHAR
STARTCHAR C076
ENCODING 62
SWIDTH 666 0
DWIDTH 16 0
BBX 16 25 0 -3
BITMAP
0000
0000
0000
0000
0000
0000
0000
0000
0000
0000
0000
0600
0700
0380
01C0
00E0
0070
0070
00E0
01C0
0380
0700
0600
0000
0000
ENDCHAR
STARTCHAR C077
ENCODING 63
SWIDTH 666 0
DWIDTH 16 0
BBX 16 25 0 -3
BITMAP
0000
0000
0000
0000
0000
0000
0000
0000
0000
0000
0000
07C0
0FE0
1830
1830
0030
0060
00C0
0180
0180
0000
0180
0180
0000
0000
ENDCHAR
STARTCHAR C100
ENCODING 64
SWIDTH 666 0
DWIDTH 16 0
BBX 16 25 0 -3
BITMAP
0000
0000
0000
0000
0000
0000
0000
0000
0000
0000
0000
0300
0780
0780
0780
0300
0CC0
1FE0
17A0
17A0
17A0
0680
0480
0CC0
0000
ENDCHAR
STARTCHAR C101
ENCODING 65
SWIDTH 666 0
DWIDTH 16 0
BBX 16 25 0 -3
BITMAP
0000
0000
0000
0000
0000
0000
0000
0000
0000
0000
0180
03C0
0240
0660
0660
0C30
0C30
1818
1FF8
1818
300C
300C
0000
0000
0000
ENDCHAR
STARTCHAR C102
ENCODING 66
SWIDTH 666 0
DWIDTH 16 0
BBX 16 25 0 -3
BITMAP
0000
0000
0000
0000
0000
0000
0000
0000
0000
0000
3FC0
3030
3018
3018
3030
3FE0
3030
3018
3018
3018
3030
3FC0
0000
0000
0000
ENDCHAR
STARTCHAR C103
ENCODING 67
SWIDTH 666 0
DWIDTH 16 0
BBX 16 25 0 -3
BITMAP
0000
0000
0000
0000
0000
0000
0000
0000
0000
0000
03C0
0C30
1818
1800
3000
3000
3000
3000
1800
1818
0C30
03C0
0000
0000
0000
ENDCHAR
STARTCHAR C104
ENCODING 68
SWIDTH 666 0
DWIDTH 16 0
BBX 16 25 0 -3
BITMAP
0000
0000
0000
0000
0000
0000
0000
0000
0000
0000
3FC0
3030
3018
3018
300C
300C
300C
300C
3018
3018
3030
3FC0
0000
0000
0000
ENDCHAR
STARTCHAR C105
ENCODING 69
SWIDTH 666 0
DWIDTH 16 0
BBX 16 25 0 -3
BITMAP
0000
0000
0000
0000
0000
0000
0000
0000
0000
0000
3FF8
3000
3000
3000
3000
3FF0
3000
3000
3000
3000
3000
3FF8
0000
0000
0000
ENDCHAR
STARTCHAR C106
ENCODING 70
SWIDTH 666 0
DWIDTH 16 0
BBX 16 25 0 -3
BITMAP
0000
0000
0000
0000
0000
0000
0000
0000
0000
0000
3FF8
3000
3000
3000
3000
3000
3FF0
3000
3000
3000
3000
3000
0000
0000
0000
ENDCHAR
STARTCHAR C107
ENCODING 71
SWIDTH 666 0
DWIDTH 16 0
BBX 16 25 0 -3
BITMAP
0000
0000
0000
0000
0000
0000
0000
0000
0000
0000
03C0
0C30
1818
1800
3000
3000
30F8
3018
1818
1818
0C38
03D8
0000
0000
0000
ENDCHAR
STARTCHAR C110
ENCODING 72
SWIDTH 666 0
DWIDTH 16 0
BBX 16 25 0 -3
BITMAP
0000
0000
0000
0000
0000
0000
0000
0000
0000
0000
300C
300C
300C
300C
300C
3FFC
300C
300C
300C
300C
300C
300C
0000
0000
0000
ENDCHAR
STARTCHAR C111
ENCODING 73
SWIDTH 666 0
DWIDTH 16 0
BBX 16 25 0 -3
BITMAP
0000
0000
0000
0000
0000
0000
0000
0000
0000
0000
0FF0
0180
0180
0180
0180
0180
0180
0180
0180
0180
0180
0FF0
0000
0000
0000
ENDCHAR
STARTCHAR C112
ENCODING 74
SWIDTH 666 0
DWIDTH 16 0
BBX 16 25 0 -3
BITMAP
0000
0000
0000
0000
0000
0000
0000
0000
0000
0000
07F8
0018
0018
0018
0018
0018
0018
0018
0030
0030
0060
0F80
0000
0000
0000
ENDCHAR
STARTCHAR C113
ENCODING 75
SWIDTH 666 0
DWIDTH 16 0
BBX 16 25 0 -3
BITMAP
0000
0000
0000
0000
0000
0000
0000
0000
0000
0000
301C
3038
3060
30C0
3180
3300
3E00
3380
30C0
3060
3038
301C
0000
0000
0000
ENDCHAR
STARTCHAR C114
ENCODING 76
SWIDTH 666 0
DWIDTH 16 0
BBX 16 25 0 -3
BITMAP
0000
0000
0000
0000
0000
0000
0000
0000
0000
0000
3000
3000
3000
3000
3000
3000
3000
3000
3000
3000
3000
3FF8
0000
0000
0000
ENDCHAR
STARTCHAR C115
ENCODING 77
SWIDTH 666 0
DWIDTH 16 0
BBX 16 25 0 -3
BITMAP
0000
0000
0000
0000
0000
0000
0000
0000
0000
0000
2004
300C
381C
3C3C
366C
33CC
318C
300C
300C
300C
300C
300C
0000
0000
0000
ENDCHAR
STARTCHAR C116
ENCODING 78
SWIDTH 666 0
DWIDTH 16 0
BBX 16 25 0 -3
BITMAP
0000
0000
0000
0000
0000
0000
0000
0000
0000
0000
300C
380C
3C0C
360C
330C
318C
30CC
306C
303C
301C
300C
300C
0000
0000
0000
ENDCHAR
STARTCHAR C117
ENCODING 79
SWIDTH 666 0
DWIDTH 16 0
BBX 16 25 0 -3
BITMAP
0000
0000
0000
0000
0000
0000
0000
0000
0000
0000
03C0
0C30
1818
1818
300C
300C
300C
300C
1818
1818
0C30
03C0
0000
0000
0000
ENDCHAR
STARTCHAR C120
ENCODING 80
SWIDTH 666 0
DWIDTH 16 0
BBX 16 25 0 -3
BITMAP
0000
0000
0000
0000
0000
0000
0000
0000
0000
0000
3FC0
3030
3018
3018
3018
3030
3FE0
3000
3000
3000
3000
3000
0000
0000
0000
ENDCHAR
STARTCHAR C121
ENCODING 81
SWIDTH 666 0
DWIDTH 16 0
BBX 16 25 0 -3
BITMAP
0000
0000
0000
0000
0000
0000
0000
0000
0000
0000
03C0
0C30
1818
1818
300C
300C
300C
300C
1818
1B18
0CB0
03C0
0040
0070
0030
ENDCHAR
STARTCHAR C122
ENCODING 82
SWIDTH 666 0
DWIDTH 16 0
BBX 16 25 0 -3
BITMAP
0000
0000
0000
0000
0000
0000
0000
0000
0000
0000
3FC0
3030
3018
3018
3018
3030
3FE0
3060
3030
3030
3018
3018
0000
0000
0000
ENDCHAR
STARTCHAR C123
ENCODING 83
SWIDTH 666 0
DWIDTH 16 0
BBX 16 25 0 -3
BITMAP
0000
0000
0000
0000
0000
0000
0000
0000
0000
0000
07C0
1830
3018
3000
1800
0FC0
0070
0018
0018
3018
1830
07C0
0000
0000
0000
ENDCHAR
STARTCHAR C124
ENCODING 84
SWIDTH 666 0
DWIDTH 16 0
BBX 16 25 0 -3
BITMAP
0000
0000
0000
0000
0000
0000
0000
0000
0000
0000
3FFC
0180
0180
0180
0180
0180
0180
0180
0180
0180
0180
0180
0000
0000
0000
ENDCHAR
STARTCHAR C125
ENCODING 85
SWIDTH 666 0
DWIDTH 16 0
BBX 16 25 0 -3
BITMAP
0000
0000
0000
0000
0000
0000
0000
0000
0000
0000
300C
300C
300C
300C
300C
300C
300C
300C
1818
1818
0C30
03C0
0000
0000
0000
ENDCHAR
STARTCHAR C126
ENCODING 86
SWIDTH 666 0
DWIDTH 16 0
BBX 16 25 0 -3
BITMAP
0000
0000
0000
0000
0000
0000
0000
0000
0000
0000
300C
300C
1818
1818
1818
0C30
0C30
0660
0660
0240
03C0
0180
0000
0000
0000
ENDCHAR
STARTCHAR C127
ENCODING 87
SWIDTH 666 0
DWIDTH 16 0
BBX 16 25 0 -3
BITMAP
0000
0000
0000
0000
0000
0000
0000
0000
0000
0000
300C
300C
300C
300C
318C
318C
1998
1BD8
1A58
1A58
0E70
0C30
0000
0000
0000
ENDCHAR
STARTCHAR C130
ENCODING 88
SWIDTH 666 0
DWIDTH 16 0
BBX 16 25 0 -3
BITMAP
0000
0000
0000
0000
0000
0000
0000
0000
0000
0000
3018
3018
3018
1830
0C60
06C0
0380
06C0
0C60
1830
3018
3018
0000
0000
0000
ENDCHAR
STARTCHAR C131
ENCODING 89
SWIDTH 666 0
DWIDTH 16 0
BBX 16 25 0 -3
BITMAP
0000
0000
0000
0000
0000
0000
0000
0000
0000
0000
300C
300C
300C
1818
0C30
0660
03C0
0180
0180
0180
0180
0180
0000
0000
0000
ENDCHAR
STARTCHAR C132
ENCODING 90
SWIDTH 666 0
DWIDTH 16 0
BBX 16 25 0 -3
BITMAP
0000
0000
0000
0000
0000
0000
0000
0000
0000
0000
3FFC
000C
0018
0030
0060
00C0
0180
0300
0600
0C00
1800
3FFC
0000
0000
0000
ENDCHAR
STARTCHAR C133
ENCODING 91
SWIDTH 666 0
DWIDTH 16 0
BBX 16 25 0 -3
BITMAP
0000
0000
0000
0000
0000
0000
0000
0000
0000
0000
07C0
0600
0600
0600
0600
0600
0600
0600
0600
0600
0600
0600
07C0
0000
0000
ENDCHAR
STARTCHAR C134
ENCODING 92
SWIDTH 666 0
DWIDTH 16 0
BBX 16 25 0 -3
BITMAP
0000
0000
0000
0000
0000
0000
0000
0000
0000
8000
C000
6000
3000
1800
0C00
0600
0300
0180
00C0
0060
0030
0018
000C
0006
0003
ENDCHAR
STARTCHAR C135
ENCODING 93
SWIDTH 666 0
DWIDTH 16 0
BBX 16 25 0 -3
BITMAP
0000
0000
0000
0000
0000
0000
0000
0000
0000
0000
03E0
0060
0060
0060
0060
0060
0060
0060
0060
0060
0060
0060
03E0
0000
0000
ENDCHAR
STARTCHAR C136
ENCODING 94
SWIDTH 666 0
DWIDTH 16 0
BBX 16 25 0 -3
BITMAP
0000
0000
0000
0000
0000
0000
0000
0000
0000
0000
0000
0000
0180
03C0
0660
0C30
1818
0000
0000
0000
0000
0000
0000
0000
0000
ENDCHAR
STARTCHAR C137
ENCODING 95
SWIDTH 666 0
DWIDTH 16 0
BBX 16 25 0 -3
BITMAP
0000
0000
0000
0000
0000
0000
0000
0000
0000
0000
0000
0000
0000
0000
0000
0000
0000
0000
0000
0000
0000
0000
0000
7FFE
7FFE
ENDCHAR
STARTCHAR C140
ENCODING 96
SWIDTH 666 0
DWIDTH 16 0
BBX 16 25 0 -3
BITMAP
0000
0000
0000
0000
0000
0000
0000
0000
0000
0000
01C0
01C0
0180
00C0
0040
0000
0000
0000
0000
0000
0000
0000
0000
0000
0000
ENDCHAR
STARTCHAR C141
ENCODING 97
SWIDTH 666 0
DWIDTH 16 0
BBX 16 25 0 -3
BITMAP
0000
0000
0000
0000
0000
0000
0000
0000
0000
0000
0000
0000
0000
1FE0
1018
000C
07FC
180C
300C
301C
183C
07CC
0000
0000
0000
ENDCHAR
STARTCHAR C142
ENCODING 98
SWIDTH 666 0
DWIDTH 16 0
BBX 16 25 0 -3
BITMAP
0000
0000
0000
0000
0000
0000
0000
0000
0000
0000
3000
3000
3000
33C0
3C30
3818
300C
300C
300C
3818
3C30
33C0
0000
0000
0000
ENDCHAR
STARTCHAR C143
ENCODING 99
SWIDTH 666 0
DWIDTH 16 0
BBX 16 25 0 -3
BITMAP
0000
0000
0000
0000
0000
0000
0000
0000
0000
0000
0000
0000
0000
03E0
0C18
1808
3000
3000
3000
1800
0C18
03E0
0000
0000
0000
ENDCHAR
STARTCHAR C144
ENCODING 100
SWIDTH 666 0
DWIDTH 16 0
BBX 16 25 0 -3
BITMAP
0000
0000
0000
0000
0000
0000
0000
0000
0000
0000
000C
000C
000C
03CC
0C3C
181C
300C
300C
300C
181C
0C3C
03CC
0000
0000
0000
ENDCHAR
STARTCHAR C145
ENCODING 101
SWIDTH 666 0
DWIDTH 16 0
BBX 16 25 0 -3
BITMAP
0000
0000
0000
0000
0000
0000
0000
0000
0000
0000
0000
0000
0000
03E0
0C18
180C
300C
3FFC
3000
1800
0C0C
03F0
0000
0000
0000
ENDCHAR
STARTCHAR C146
ENCODING 102
SWIDTH 666 0
DWIDTH 16 0
BBX 16 25 0 -3
BITMAP
0000
0000
0000
0000
0000
0000
0000
0000
0000
0000
0070
0180
0300
0300
0FF0
0300
0300
0300
0300
0300
0300
0300
0000
0000
0000
ENDCHAR
STARTCHAR C147
ENCODING 103
SWIDTH 666 0
DWIDTH 16 0
BBX 16 25 0 -3
BITMAP
0000
0000
0000
0000
0000
0000
0000
0000
0000
0000
0000
0000
0000
03CC
0C3C
181C
300C
300C
300C
181C
0C3C
03CC
000C
3018
0FE0
ENDCHAR
STARTCHAR C150
ENCODING 104
SWIDTH 666 0
DWIDTH 16 0
BBX 16 25 0 -3
BITMAP
0000
0000
0000
0000
0000
0000
0000
0000
0000
0000
3000
3000
3000
33C0
3C30
3818
300C
300C
300C
300C
300C
300C
0000
0000
0000
ENDCHAR
STARTCHAR C151
ENCODING 105
SWIDTH 666 0
DWIDTH 16 0
BBX 16 25 0 -3
BITMAP
0000
0000
0000
0000
0000
0000
0000
0000
0000
0000
00C0
00C0
0000
0FC0
00C0
00C0
00C0
00C0
00C0
00C0
00C0
00C0
0000
0000
0000
ENDCHAR
STARTCHAR C152
ENCODING 106
SWIDTH 666 0
DWIDTH 16 0
BBX 16 25 0 -3
BITMAP
0000
0000
0000
0000
0000
0000
0000
0000
0000
0000
00C0
00C0
0000
0FC0
00C0
00C0
00C0
00C0
00C0
00C0
00C0
00C0
00C0
0180
0E00
ENDCHAR
STARTCHAR C153
ENCODING 107
SWIDTH 666 0
DWIDTH 16 0
BBX 16 25 0 -3
BITMAP
0000
0000
0000
0000
0000
0000
0000
0000
0000
0000
3000
3000
3000
301C
3038
30E0
3380
3E00
3380
30E0
3038
301C
0000
0000
0000
ENDCHAR
STARTCHAR C154
ENCODING 108
SWIDTH 666 0
DWIDTH 16 0
BBX 16 25 0 -3
BITMAP
0000
0000
0000
0000
0000
0000
0000
0000
0000
0000
0FC0
00C0
00C0
00C0
00C0
00C0
00C0
00C0
00C0
00C0
00C0
00C0
0000
0000
0000
ENDCHAR
STARTCHAR C155
ENCODING 109
SWIDTH 666 0
DWIDTH 16 0
BBX 16 25 0 -3
BITMAP
0000
0000
0000
0000
0000
0000
0000
0000
0000
0000
0000
0000
0000
3670
3988
318C
318C
318C
318C
318C
318C
318C
0000
0000
0000
ENDCHAR
STARTCHAR C156
ENCODING 110
SWIDTH 666 0
DWIDTH 16 0
BBX 16 25 0 -3
BITMAP
0000
0000
0000
0000
0000
0000
0000
0000
0000
0000
0000
0000
0000
33C0
3C30
3818
300C
300C
300C
300C
300C
300C
0000
0000
0000
ENDCHAR
STARTCHAR C157
ENCODING 111
SWIDTH 666 0
DWIDTH 16 0
BBX 16 25 0 -3
BITMAP
0000
0000
0000
0000
0000
0000
0000
0000
0000
0000
0000
0000
0000
03C0
0C30
1818
300C
300C
300C
1818
0C30
03C0
0000
0000
0000
ENDCHAR
STARTCHAR C160
ENCODING 112
SWIDTH 666 0
DWIDTH 16 0
BBX 16 25 0 -3
BITMAP
0000
0000
0000
0000
0000
0000
0000
0000
0000
0000
0000
0000
0000
33C0
3C30
3818
300C
300C
300C
3818
3C30
33C0
3000
3000
3000
ENDCHAR
STARTCHAR C161
ENCODING 113
SWIDTH 666 0
DWIDTH 16 0
BBX 16 25 0 -3
BITMAP
0000
0000
0000
0000
0000
0000
0000
0000
0000
0000
0000
0000
0000
03CC
0C3C
181C
300C
300C
300C
181C
0C3C
03CC
000C
000C
000C
ENDCHAR
STARTCHAR C162
ENCODING 114
SWIDTH 666 0
DWIDTH 16 0
BBX 16 25 0 -3
BITMAP
0000
0000
0000
0000
0000
0000
0000
0000
0000
0000
0000
0000
0000
33F0
3C18
3818
3000
3000
3000
3000
3000
3000
0000
0000
0000
ENDCHAR
STARTCHAR C163
ENCODING 115
SWIDTH 666 0
DWIDTH 16 0
BBX 16 25 0 -3
BITMAP
0000
0000
0000
0000
0000
0000
0000
0000
0000
0000
0000
0000
0000
07F8
180C
3000
3800
1FF8
001C
000C
3018
1FE0
0000
0000
0000
ENDCHAR
STARTCHAR C164
ENCODING 116
SWIDTH 666 0
DWIDTH 16 0
BBX 16 25 0 -3
BITMAP
0000
0000
0000
0000
0000
0000
0000
0000
0000
0000
0100
0300
0300
0FF0
0300
0300
0300
0300
0300
0300
0180
0070
0000
0000
0000
ENDCHAR
STARTCHAR C165
ENCODING 117
SWIDTH 666 0
DWIDTH 16 0
BBX 16 25 0 -3
BITMAP
0000
0000
0000
0000
0000
0000
0000
0000
0000
0000
0000
0000
0000
300C
300C
300C
300C
300C
300C
181C
0C3C
03CC
0000
0000
0000
ENDCHAR
STARTCHAR C166
ENCODING 118
SWIDTH 666 0
DWIDTH 16 0
BBX 16 25 0 -3
BITMAP
0000
0000
0000
0000
0000
0000
0000
0000
0000
0000
0000
0000
0000
300C
300C
1818
1818
0C30
0660
0660
03C0
0180
0000
0000
0000
ENDCHAR
STARTCHAR C167
ENCODING 119
SWIDTH 666 0
DWIDTH 16 0
BBX 16 25 0 -3
BITMAP
0000
0000
0000
0000
0000
0000
0000
0000
0000
0000
0000
0000
0000
300C
300C
300C
318C
1998
1BD8
1A58
0E70
0C30
0000
0000
0000
ENDCHAR
STARTCHAR C170
ENCODING 120
SWIDTH 666 0
DWIDTH 16 0
BBX 16 25 0 -3
BITMAP
0000
0000
0000
0000
0000
0000
0000
0000
0000
0000
0000
0000
0000
3018
1830
0C60
06C0
0380
06C0
0C60
1830
3018
0000
0000
0000
ENDCHAR
STARTCHAR C171
ENCODING 121
SWIDTH 666 0
DWIDTH 16 0
BBX 16 25 0 -3
BITMAP
0000
0000
0000
0000
0000
0000
0000
0000
0000
0000
0000
0000
0000
300C
300C
300C
300C
300C
300C
181C
0C3C
03CC
000C
3018
0FE0
ENDCHAR
STARTCHAR C172
ENCODING 122
SWIDTH 666 0
DWIDTH 16 0
BBX 16 25 0 -3
BITMAP
0000
0000
0000
0000
0000
0000
0000
0000
0000
0000
0000
0000
0000
1FF8
0030
0060
00C0
0180
0300
0600
0C00
1FF8
0000
0000
0000
ENDCHAR
STARTCHAR C173
ENCODING 123
SWIDTH 666 0
DWIDTH 16 0
BBX 16 25 0 -3
BITMAP
0000
0000
0000
0000
0000
0000
0000
0000
0000
0600
0070
1ED8
3380
6188
0D64
2392
4180
0FF0
1188
27E4
300C
3FFC
1FF8
0FF0
0000
ENDCHAR
STARTCHAR C174
ENCODING 124
SWIDTH 666 0
DWIDTH 16 0
BBX 16 25 0 -3
BITMAP
0000
0000
0000
0000
0000
0000
0000
0000
0000
0180
0180
0180
0180
0180
0180
0180
0180
0180
0180
0180
0180
0180
0180
0180
0180
ENDCHAR
STARTCHAR C175
ENCODING 125
SWIDTH 666 0
DWIDTH 16 0
BBX 16 25 0 -3
BITMAP
0000
0000
0000
0000
0000
0000
0000
0000
0000
0000
7828
0DC0
0700
0060
A0B3
1212
0C0C
0000
18F0
2518
420C
00F0
391C
4C4E
C383
ENDCHAR
STARTCHAR C176
ENCODING 126
SWIDTH 666 0
DWIDTH 16 0
BBX 16 25 0 -3
BITMAP
0000
0000
0000
0000
0000
0000
0000
0000
0000
0000
0000
0608
0F88
11F0
1060
0000
0000
0000
0000
0000
0000
0000
0000
0000
0000
ENDCHAR
STARTCHAR C240
ENCODING 160
SWIDTH 666 0
DWIDTH 16 0
BBX 16 25 0 -3
BITMAP
0000
0000
0000
0000
0000
0000
0000
0000
0000
0000
0000
1C00
2B00
7FC0
73F0
61FC
61F7
73FC
7FD2
7EEC
6F90
7482
0220
4800
0000
ENDCHAR
STARTCHAR C241
ENCODING 161
SWIDTH 666 0
DWIDTH 16 0
BBX 16 25 0 -3
BITMAP
0000
0000
0000
0000
0000
0000
0000
0000
0000
0000
0000
0000
0000
0180
0180
03C0
0180
03C0
04E0
05E0
07E0
03C0
0000
0000
0000
ENDCHAR
STARTCHAR C242
ENCODING 162
SWIDTH 666 0
DWIDTH 16 0
BBX 16 25 0 -3
BITMAP
0000
0000
0000
0000
0000
0000
0000
0000
0000
0000
0000
07C0
0820
1010
1010
1010
1010
0820
0440
0380
07C0
07C0
0380
0000
0000
ENDCHAR
STARTCHAR C243
ENCODING 163
SWIDTH 666 0
DWIDTH 16 0
BBX 16 25 0 -3
BITMAP
0000
0000
0000
0000
0000
0000
0000
0000
0000
0000
0000
0000
0000
0420
17E8
35AC
3BAC
355C
3FFC
1FF8
03C0
03C0
07E0
0000
0000
ENDCHAR
STARTCHAR C244
ENCODING 164
SWIDTH 666 0
DWIDTH 16 0
BBX 16 25 0 -3
BITMAP
0000
0000
0000
0000
0000
0000
0000
0000
0000
0000
0000
0000
0000
0000
00C0
0660
0DB0
03C0
19B0
3C78
1B30
278C
735E
78EC
0000
ENDCHAR
STARTCHAR C245
ENCODING 165
SWIDTH 666 0
DWIDTH 16 0
BBX 16 25 0 -3
BITMAP
0000
0000
0000
0000
0000
0000
0000
0000
0000
0000
1800
1800
3C00
3C00
7DF8
4BFC
47FA
4FF6
742A
2956
781A
0A94
0818
0FF0
0000
ENDCHAR
STARTCHAR C246
ENCODING 166
SWIDTH 666 0
DWIDTH 16 0
BBX 16 25 0 -3
BITMAP
0000
0000
0000
0000
0000
0000
0000
0000
0000
0000
07C0
0FE0
1FF0
1FF0
3878
3238
3438
3038
3038
1870
1FF0
0FE0
07C0
0000
0000
ENDCHAR
STARTCHAR C247
ENCODING 167
SWIDTH 666 0
DWIDTH 16 0
BBX 16 25 0 -3
BITMAP
0000
0000
0000
0000
0000
0000
0000
0000
0000
0000
0000
01C0
0220
0220
3120
48CC
08F2
07C2
00C0
00C0
0130
0608
0808
0810
0400
ENDCHAR
STARTCHAR C250
ENCODING 168
SWIDTH 666 0
DWIDTH 16 0
BBX 16 25 0 -3
BITMAP
0000
0000
0000
0000
0000
0000
0000
0000
0000
0000
0000
0000
17BC
6F76
5EE8
BDF2
BDE4
FFEA
8914
BFEA
BFF6
BDEC
BDF8
FFF0
0000
ENDCHAR
STARTCHAR C251
ENCODING 169
SWIDTH 666 0
DWIDTH 16 0
BBX 16 25 0 -3
BITMAP
0000
0000
0000
0000
0000
0000
0000
0000
0000
0000
0002
0006
0004
000C
0018
0030
0060
03C0
0180
07C0
0E00
1C00
0800
0000
0000
ENDCHAR
STARTCHAR C252
ENCODING 170
SWIDTH 666 0
DWIDTH 16 0
BBX 16 25 0 -3
BITMAP
0000
0000
0000
0000
0000
0000
0000
0000
0000
0000
0000
0000
0000
0000
0000
07C0
0FA0
1FD0
0FA0
0740
0380
0100
0000
0000
0000
ENDCHAR
STARTCHAR C253
ENCODING 171
SWIDTH 666 0
DWIDTH 16 0
BBX 16 25 0 -3
BITMAP
0000
0000
0000
0000
0000
0000
0000
0000
0000
0000
0000
0000
0700
07E0
0E38
0CDC
1E7C
1B34
3C74
27E8
39E8
0E50
0390
00E0
0000
ENDCHAR
STARTCHAR C254
ENCODING 172
SWIDTH 666 0
DWIDTH 16 0
BBX 16 25 0 -3
BITMAP
0000
0000
0000
0000
0000
0000
0000
0000
0000
0000
0000
0000
0000
0000
0000
6D80
9260
6DD0
0050
0020
0050
005A
0025
001A
0000
ENDCHAR
STARTCHAR C255
ENCODING 173
SWIDTH 666 0
DWIDTH 16 0
BBX 16 25 0 -3
BITMAP
0000
0000
0000
0000
0000
0000
0000
0000
0000
FFFF
BFFD
DFF9
AFF1
D811
A811
D811
A811
D811
A811
D811
AFF1
D001
A001
C001
FFFF
ENDCHAR
STARTCHAR C256
ENCODING 174
SWIDTH 666 0
DWIDTH 16 0
BBX 16 25 0 -3
BITMAP
0000
0000
0000
0000
0000
0000
0000
0000
0000
0000
0000
0000
0000
0000
0000
0000
0180
0180
0000
0000
0000
0000
0000
0000
0000
ENDCHAR
STARTCHAR C257
ENCODING 175
SWIDTH 666 0
DWIDTH 16 0
BBX 16 25 0 -3
BITMAP
0000
0000
0000
0000
0000
0000
0000
0000
0000
0000
0000
0000
0010
0038
0050
00A0
0140
0380
0700
0A00
1C00
1800
0000
0000
0000
ENDCHAR
STARTCHAR C260
ENCODING 176
SWIDTH 666 0
DWIDTH 16 0
BBX 16 25 0 -3
BITMAP
0000
0000
0000
0000
0000
0000
0000
0000
0000
0000
0000
0000
0000
0000
0000
0000
0380
07C0
0740
0640
0380
0000
0000
0000
0000
ENDCHAR
STARTCHAR C261
ENCODING 177
SWIDTH 666 0
DWIDTH 16 0
BBX 16 25 0 -3
BITMAP
0000
0000
0000
0000
0000
0000
0000
0000
0000
72AE
754E
72AE
714E
72AE
4148
22A4
554A
72AE
754E
72AE
714E
72AE
4148
22A4
554A
ENDCHAR
STARTCHAR C262
ENCODING 178
SWIDTH 666 0
DWIDTH 16 0
BBX 16 25 0 -3
BITMAP
0000
0000
0000
0000
0000
0000
0000
0000
0000
1C1C
FDFD
E1E1
AAAA
5555
BABA
FBFB
C3C3
5555
AAAA
5555
AAAA
5555
AAAA
5555
0000
ENDCHAR
STARTCHAR C263
ENCODING 179
SWIDTH 666 0
DWIDTH 16 0
BBX 16 25 0 -3
BITMAP
0000
0000
0000
0000
0000
0000
0000
0000
0000
1FF0
F2AA
F559
FFFA
E549
EAA8
D554
AAAA
0000
6AAE
700E
754E
72AE
4148
22A4
554A
ENDCHAR
STARTCHAR C264
ENCODING 180
SWIDTH 666 0
DWIDTH 16 0
BBX 16 25 0 -3
BITMAP
0000
0000
0000
0000
0000
0000
0000
0000
0000
1FF0
F2AA
F559
FFFA
E549
EAA8
D554
AAAA
0000
AAAA
5555
AAAA
5555
AAAA
5555
0000
ENDCHAR
STARTCHAR C265
ENCODING 181
SWIDTH 666 0
DWIDTH 16 0
BBX 16 25 0 -3
BITMAP
0000
0000
0000
0000
0000
0000
0000
0000
0000
0000
7FFE
6AAE
3FFC
0000
0000
0000
0000
0000
0000
0000
0000
0000
0000
0000
0000
ENDCHAR
STARTCHAR C266
ENCODING 182
SWIDTH 666 0
DWIDTH 16 0
BBX 16 25 0 -3
BITMAP
0000
0000
0000
0000
0000
0000
0000
0000
0000
0000
6000
5000
7000
5000
7000
5000
7000
5000
7000
5000
7000
5000
7000
6000
0000
ENDCHAR
STARTCHAR C267
ENCODING 183
SWIDTH 666 0
DWIDTH 16 0
BBX 16 25 0 -3
BITMAP
0000
0000
0000
0000
0000
0000
0000
0000
0000
0000
0000
3FFC
7FFE
7FFE
3BFE
6EBA
3BEA
7FFA
7FE2
3BFE
6EAA
3BFE
7FFE
0000
0000
ENDCHAR
STARTCHAR C270
ENCODING 184
SWIDTH 666 0
DWIDTH 16 0
BBX 16 25 0 -3
BITMAP
0000
0000
0000
0000
0000
0000
0000
0000
0000
2222
8888
2222
8888
2222
8888
23A2
8A48
2262
8988
2222
8888
2222
8888
2222
8888
ENDCHAR
STARTCHAR C271
ENCODING 185
SWIDTH 666 0
DWIDTH 16 0
BBX 16 25 0 -3
BITMAP
0000
0000
0000
0000
0000
0000
0000
0000
0000
5555
AAAA
5555
AAAA
5555
AAAA
55D5
AA6A
5655
ABAA
5555
AAAA
5555
AAAA
5555
AAAA
ENDCHAR
STARTCHAR C272
ENCODING 186
SWIDTH 666 0
DWIDTH 16 0
BBX 16 25 0 -3
BITMAP
0000
0000
0000
0000
0000
0000
0000
0000
0000
0000
0000
0000
0030
0078
06F8
06F0
03E0
3780
3FE0
0F60
1E00
3B00
3300
0000
0000
ENDCHAR
STARTCHAR C273
ENCODING 187
SWIDTH 666 0
DWIDTH 16 0
BBX 16 25 0 -3
BITMAP
0000
0000
0000
0000
0000
0000
0000
0000
0000
0000
0000
0000
0000
0000
0700
0380
1340
1FC0
1F60
0CE0
07FC
01F0
0060
0040
0000
ENDCHAR
STARTCHAR C274
ENCODING 188
SWIDTH 666 0
DWIDTH 16 0
BBX 16 25 0 -3
BITMAP
0000
0000
0000
0000
0000
0000
0000
0000
0000
0000
003E
003E
0000
00FE
00FE
0002
03FC
03FA
0014
0FEA
0FF4
002A
3FD4
3FAA
0000
ENDCHAR
STARTCHAR C275
ENCODING 189
SWIDTH 666 0
DWIDTH 16 0
BBX 16 25 0 -3
BITMAP
0000
0000
0000
0000
0000
0000
0000
0000
0000
0000
0000
0000
0000
0000
0000
07C0
0C60
0820
0820
0C60
07C0
0000
0000
0000
0000
ENDCHAR
STARTCHAR C276
ENCODING 190
SWIDTH 666 0
DWIDTH 16 0
BBX 16 25 0 -3
BITMAP
0000
0000
0000
0000
0000
0000
0000
0000
0000
0000
0000
0000
0000
3800
7000
6700
4E00
1CE0
39C0
739C
6738
4E72
1CE6
39CE
739C
ENDCHAR
STARTCHAR C277
ENCODING 191
SWIDTH 666 0
DWIDTH 16 0
BBX 16 25 0 -3
BITMAP
0000
0000
0000
0000
0000
0000
0000
0000
0000
0000
3FFC
6FF6
3FFC
0000
3FFC
6FF6
3FFC
0000
3FFC
6FF6
3FFC
0000
3FFC
6FF6
3FFC
ENDCHAR
STARTCHAR C300
ENCODING 192
SWIDTH 666 0
DWIDTH 16 0
BBX 16 25 0 -3
BITMAP
0000
0000
0000
0000
0000
0000
0000
0000
0000
0000
07C0
0FE0
1EF0
1830
3EF8
3838
3EF8
3838
3838
1EF0
1FF0
0FE0
07C0
0000
0000
ENDCHAR
STARTCHAR C301
ENCODING 193
SWIDTH 666 0
DWIDTH 16 0
BBX 16 25 0 -3
BITMAP
0000
0000
0000
0000
0000
0000
0000
0000
0000
0000
0000
0108
1B9C
2DBE
3BE6
33F2
2232
5030
0060
03C0
0608
0C10
07E0
0000
0000
ENDCHAR
STARTCHAR C302
ENCODING 194
SWIDTH 666 0
DWIDTH 16 0
BBX 16 25 0 -3
BITMAP
0000
0000
0000
0000
0000
0000
0000
0000
0000
0000
0000
0000
1AB0
3FF8
7BBC
711C
2008
0000
0000
0000
0000
0000
0000
0000
0000
ENDCHAR
STARTCHAR C303
ENCODING 195
SWIDTH 666 0
DWIDTH 16 0
BBX 16 25 0 -3
BITMAP
0000
0000
0000
0000
0000
0000
0000
0000
0000
0000
0C00
0C00
0C00
3300
5E80
5E80
1E00
1FE0
3FD0
2FE0
2420
14A0
04A0
0420
0000
ENDCHAR
STARTCHAR C304
ENCODING 196
SWIDTH 666 0
DWIDTH 16 0
BBX 16 25 0 -3
BITMAP
0000
0000
0000
0000
0000
0000
0000
0000
0000
03C0
05E0
0FE0
0EE0
50E0
C1C0
0380
0D00
37E0
6BF8
57F8
EFFC
DFEC
CC6C
0C1C
00F8
ENDCHAR
STARTCHAR C305
ENCODING 197
SWIDTH 666 0
DWIDTH 16 0
BBX 16 25 0 -3
BITMAP
0000
0000
0000
0000
0000
0000
0000
0000
0000
0000
0F00
1A80
1F80
39C0
39C0
2940
2F40
2F40
2F40
2D40
2D40
0D00
1D80
3DC0
0000
ENDCHAR
STARTCHAR C306
ENCODING 198
SWIDTH 666 0
DWIDTH 16 0
BBX 16 25 0 -3
BITMAP
0000
0000
0000
0000
0000
0000
0000
0000
0000
0000
0000
1C70
2F90
4738
4778
3FF0
0E70
1E60
26F0
27B8
3798
1CF8
0000
0000
0000
ENDCHAR
STARTCHAR C307
ENCODING 199
SWIDTH 666 0
DWIDTH 16 0
BBX 16 25 0 -3
BITMAP
0000
0000
0000
0000
0000
0000
0000
0000
0000
0000
0000
0080
0080
0080
01C0
03E0
0220
0140
07F0
05D0
02A0
0360
0360
0000
0000
ENDCHAR
STARTCHAR C310
ENCODING 200
SWIDTH 666 0
DWIDTH 16 0
BBX 16 25 0 -3
BITMAP
0000
0000
0000
0000
0000
0000
0000
0000
0000
0000
03C0
07E0
0990
0FF0
0660
03C0
3FFC
7ABE
7D7E
66A6
6566
37EC
376C
0770
1F7C
ENDCHAR
STARTCHAR C311
ENCODING 201
SWIDTH 666 0
DWIDTH 16 0
BBX 16 25 0 -3
BITMAP
0000
0000
0000
0000
0000
0000
0000
0000
0000
5555
A82A
5015
A01A
400D
A006
4007
A006
4007
A006
5007
A80E
501D
AAFA
5555
AAAA
ENDCHAR
STARTCHAR C312
ENCODING 202
SWIDTH 666 0
DWIDTH 16 0
BBX 16 25 0 -3
BITMAP
0000
0000
0000
0000
0000
0000
0000
0000
0000
0000
07C0
0EE0
1C70
1830
3EF8
3C78
3C78
3C78
3EF8
1830
1C70
0EE0
07C0
0000
0000
ENDCHAR
STARTCHAR C313
ENCODING 203
SWIDTH 666 0
DWIDTH 16 0
BBX 16 25 0 -3
BITMAP
0000
0000
0000
0000
0000
0000
0000
0000
0000
0000
0600
0F00
0B10
1F90
0F10
0610
0F70
1FD0
37C0
1F80
0788
2FDC
7CF8
1860
0000
ENDCHAR
STARTCHAR C314
ENCODING 204
SWIDTH 666 0
DWIDTH 16 0
BBX 16 25 0 -3
BITMAP
0000
0000
0000
0000
0000
0000
0000
0000
0000
0000
0000
0E00
0B00
1F00
1A00
0380
0F80
17C0
23C0
05C0
01C0
0340
0E40
01C0
0000
ENDCHAR
STARTCHAR C315
ENCODING 205
SWIDTH 666 0
DWIDTH 16 0
BBX 16 25 0 -3
BITMAP
0000
0000
0000
0000
0000
0000
0000
0000
0000
0000
0000
0780
07C0
02A0
0780
0FC0
1FE0
17E0
17A0
17A0
17A0
16C0
06C0
0EE0
0000
ENDCHAR
STARTCHAR C316
ENCODING 206
SWIDTH 666 0
DWIDTH 16 0
BBX 16 25 0 -3
BITMAP
0000
0000
0000
0000
0000
0000
0000
0000
0000
0000
0C00
1E00
1E00
0C00
3300
3F00
3F00
1E00
1E30
1EFC
1FFE
1FC6
0F8C
0618
0020
ENDCHAR
STARTCHAR C317
ENCODING 207
SWIDTH 666 0
DWIDTH 16 0
BBX 16 25 0 -3
BITMAP
0000
0000
0000
0000
0000
0000
0000
0000
0000
0000
0F80
3FE0
1240
1FC0
0F80
0880
3FB0
77B8
7878
6FD8
4FC8
6FD8
6FD8
0FC0
3EF8
ENDCHAR
STARTCHAR C320
ENCODING 208
SWIDTH 666 0
DWIDTH 16 0
BBX 16 25 0 -3
BITMAP
0000
0000
0000
0000
0000
0000
0000
0000
0000
0000
0000
0000
0380
0F40
1FA0
3D70
7AB0
7558
6AA8
7578
3A9C
0F1E
003A
003E
0000
ENDCHAR
STARTCHAR C321
ENCODING 209
SWIDTH 666 0
DWIDTH 16 0
BBX 16 25 0 -3
BITMAP
0000
0000
0000
0000
0000
0000
0000
0000
0000
0000
01C0
06B0
0F78
5BD8
56B0
71C8
7B30
7DE0
7610
73F8
23F8
0310
0318
040C
0000
ENDCHAR
STARTCHAR C322
ENCODING 210
SWIDTH 666 0
DWIDTH 16 0
BBX 16 25 0 -3
BITMAP
0000
0000
0000
0000
0000
0000
0000
0000
0000
0000
0F00
1A80
1D80
1D80
1D88
0F18
0F9C
1FD6
3F08
37B8
0FF8
07F0
07C0
0000
0000
ENDCHAR
STARTCHAR C323
ENCODING 211
SWIDTH 666 0
DWIDTH 16 0
BBX 16 25 0 -3
BITMAP
0000
0000
0000
0000
0000
0000
0000
0000
0000
0000
0000
0000
0E00
1F18
17B0
1DB0
11B0
2B98
0718
0718
0E38
0FF0
0FE0
07C0
0000
ENDCHAR
STARTCHAR C324
ENCODING 212
SWIDTH 666 0
DWIDTH 16 0
BBX 16 25 0 -3
BITMAP
0000
0000
0000
0000
0000
0000
0000
0000
0000
0000
0FC0
3D40
1FE0
3C60
3C60
3BB0
3470
37F0
1DF0
0DE0
02C0
06E0
0CC0
0C40
0000
ENDCHAR
STARTCHAR C325
ENCODING 213
SWIDTH 666 0
DWIDTH 16 0
BBX 16 25 0 -3
BITMAP
0000
0000
0000
0000
0000
0000
0000
0000
0000
0000
0F80
1FC0
2AA0
3FE8
3AEC
2AB8
2FB0
3F80
2F80
0D80
0D80
0D80
1DC0
38C0
0000
ENDCHAR
STARTCHAR C326
ENCODING 214
SWIDTH 666 0
DWIDTH 16 0
BBX 16 25 0 -3
BITMAP
0000
0000
0000
0000
0000
0000
0000
0000
0000
0000
01E0
1330
1EDC
1618
3FF8
3FF8
1FF8
1FF8
17F8
17F8
15F8
17F8
11D8
1308
0000
ENDCHAR
STARTCHAR C327
ENCODING 215
SWIDTH 666 0
DWIDTH 16 0
BBX 16 25 0 -3
BITMAP
0000
0000
0000
0000
0000
0000
0000
0000
0000
0000
0000
0F80
09C0
04C0
04C0
1BA0
3760
37A0
17A0
1360
1BE0
038C
0378
01E0
0000
ENDCHAR
STARTCHAR C330
ENCODING 216
SWIDTH 666 0
DWIDTH 16 0
BBX 16 25 0 -3
BITMAP
0000
0000
0000
0000
0000
0000
0000
0000
0000
0000
0000
0000
0DB0
0FF0
0800
0F70
0B50
0810
0EE0
0EE0
0810
0FF0
0DB0
0000
0000
ENDCHAR
STARTCHAR C331
ENCODING 217
SWIDTH 666 0
DWIDTH 16 0
BBX 16 25 0 -3
BITMAP
0000
0000
0000
0000
0000
0000
0000
0000
0000
0000
0000
03C0
07E0
0D70
0FD0
1ED8
3FBC
366C
27E4
37EC
366C
0660
1E7C
0000
0000
ENDCHAR
STARTCHAR C332
ENCODING 218
SWIDTH 666 0
DWIDTH 16 0
BBX 16 25 0 -3
BITMAP
0000
0000
0000
0000
0000
0000
0000
0000
0000
0000
0000
0000
0100
0380
0380
0100
0EE0
1FF0
3398
2388
02E0
0420
0E30
0000
0000
ENDCHAR
STARTCHAR C333
ENCODING 219
SWIDTH 666 0
DWIDTH 16 0
BBX 16 25 0 -3
BITMAP
0000
0000
0000
0000
0000
0000
0000
0000
0000
0000
0000
1FF8
550A
5A0A
550A
1A08
1508
1A08
0D10
1628
2B54
599A
300C
0000
0000
ENDCHAR
STARTCHAR C334
ENCODING 220
SWIDTH 666 0
DWIDTH 16 0
BBX 16 25 0 -3
BITMAP
0000
0000
0000
0000
0000
0000
0000
0000
0000
0000
4444
EEEE
AAAA
EEEE
EEEE
EEEE
EEEE
EEEE
EEEE
EEEE
EEEE
AAAA
EEEE
4444
0000
ENDCHAR
STARTCHAR C335
ENCODING 221
SWIDTH 666 0
DWIDTH 16 0
BBX 16 25 0 -3
BITMAP
0000
0000
0000
0000
0000
0000
0000
0000
0000
0000
17B8
6F74
5EEA
BDF4
BDE8
FFF2
30C4
FFEA
8914
BFEA
BFF6
BDEC
BDF8
FFF0
0000
ENDCHAR
STARTCHAR C336
ENCODING 222
SWIDTH 666 0
DWIDTH 16 0
BBX 16 25 0 -3
BITMAP
0000
0000
0000
0000
0000
0000
0000
0000
0000
0000
06C0
0C60
1830
1EF0
3C78
3938
3BB8
3938
3C78
1EF0
1830
0C60
06C0
0000
0000
ENDCHAR
STARTCHAR C337
ENCODING 223
SWIDTH 666 0
DWIDTH 16 0
BBX 16 25 0 -3
BITMAP
0000
0000
0000
0000
0000
0000
0000
0000
0000
0000
0000
0000
0000
0000
0000
0000
0000
0000
0000
1FF0
3AB8
1550
1810
3FF8
0000
ENDCHAR
STARTCHAR C340
ENCODING 224
SWIDTH 666 0
DWIDTH 16 0
BBX 16 25 0 -3
BITMAP
0000
0000
0000
0000
0000
0000
0000
0000
0000
0000
0000
0000
03C0
0FF0
13F8
17E8
3FB4
3FE8
2FD4
3FE8
1F50
1AA8
0D50
0280
0000
ENDCHAR
STARTCHAR C341
ENCODING 225
SWIDTH 666 0
DWIDTH 16 0
BBX 16 25 0 -3
BITMAP
0000
0000
0000
0000
0000
0000
0000
0000
0000
0000
0000
0000
0000
0000
0000
0038
0DBC
13D8
03E0
3D90
5D48
7528
4D20
1920
0000
ENDCHAR
STARTCHAR C342
ENCODING 226
SWIDTH 666 0
DWIDTH 16 0
BBX 16 25 0 -3
BITMAP
0000
0000
0000
0000
0000
0000
0000
0000
0000
0000
0000
0000
0380
0FC0
3FE0
5FD0
39E2
79F0
3FF8
07B8
2790
0B04
0020
1000
0000
ENDCHAR
STARTCHAR C343
ENCODING 227
SWIDTH 666 0
DWIDTH 16 0
BBX 16 25 0 -3
BITMAP
0000
0000
0000
0000
0000
0000
0000
0000
0000
0000
0000
0000
0600
1A00
3600
07E0
0FF0
05F8
00F8
0038
0218
0418
0470
03C0
0000
ENDCHAR
STARTCHAR C344
ENCODING 228
SWIDTH 666 0
DWIDTH 16 0
BBX 16 25 0 -3
BITMAP
0000
0000
0000
0000
0000
0000
0000
0000
0000
0000
0000
1200
1607
3C0E
15F0
7FF8
F7F8
F5F8
05E8
0908
0508
0D18
0300
0000
0000
ENDCHAR
STARTCHAR C345
ENCODING 229
SWIDTH 666 0
DWIDTH 16 0
BBX 16 25 0 -3
BITMAP
0000
0000
0000
0000
0000
0000
0000
0000
0000
0000
07C0
1FF0
1FF0
3CF8
3B78
34B8
34B8
1B70
1CF0
07C0
0000
0000
0000
0000
0000
ENDCHAR
STARTCHAR C346
ENCODING 230
SWIDTH 666 0
DWIDTH 16 0
BBX 16 25 0 -3
BITMAP
0000
0000
0000
0000
0000
0000
0000
0000
0000
0000
000C
0002
0002
4402
6C02
7FFC
57FC
7DFE
7BEE
73EE
061C
3CF0
0000
0000
0000
ENDCHAR
STARTCHAR C347
ENCODING 231
SWIDTH 666 0
DWIDTH 16 0
BBX 16 25 0 -3
BITMAP
0000
0000
0000
0000
0000
0000
0000
0000
0000
0000
0000
0000
7038
3C70
1FE0
0B40
0B40
0FC0
07A0
1B70
3CD0
3690
06C0
0CC0
0000
ENDCHAR
STARTCHAR C350
ENCODING 232
SWIDTH 666 0
DWIDTH 16 0
BBX 16 25 0 -3
BITMAP
0000
0000
0000
0000
0000
0000
0000
0000
0000
0000
0000
0000
0000
0100
0380
07C0
0540
0280
0EE0
0BA0
0380
06C0
06C0
0000
0000
ENDCHAR
STARTCHAR C351
ENCODING 233
SWIDTH 666 0
DWIDTH 16 0
BBX 16 25 0 -3
BITMAP
0000
0000
0000
0000
0000
0000
0000
0000
0000
0000
0000
0000
0000
0000
0000
0540
07E0
03A0
07C0
0B88
0BF0
0280
06C0
0000
0000
ENDCHAR
STARTCHAR C352
ENCODING 234
SWIDTH 666 0
DWIDTH 16 0
BBX 16 25 0 -3
BITMAP
0000
0000
0000
0000
0000
0000
0000
0000
0000
0000
0000
0000
0200
0700
37A0
7F70
7FF0
7278
7278
7FF8
3FF0
1FE0
07C0
0000
0000
ENDCHAR
STARTCHAR C353
ENCODING 235
SWIDTH 666 0
DWIDTH 16 0
BBX 16 25 0 -3
BITMAP
0000
0000
0000
0000
0000
0000
0000
0000
0000
0000
0000
0000
0440
07C0
0540
0380
06C0
0FE0
0BA0
0BA0
0380
0280
06C0
0000
0000
ENDCHAR
STARTCHAR C354
ENCODING 236
SWIDTH 666 0
DWIDTH 16 0
BBX 16 25 0 -3
BITMAP
0000
0000
0000
0000
0000
0000
0000
0000
0000
0000
0000
0000
0000
0100
0108
0394
07C8
03B8
0EE8
0B88
05C8
06C8
0CE8
0000
0000
ENDCHAR
STARTCHAR C355
ENCODING 237
SWIDTH 666 0
DWIDTH 16 0
BBX 16 25 0 -3
BITMAP
0000
0000
0000
0000
0000
0000
0000
0000
0000
0000
0000
0000
0380
0380
0380
0380
07C0
0FE0
1BB0
17D0
06C0
06C0
0EE0
0000
0000
ENDCHAR
STARTCHAR C356
ENCODING 238
SWIDTH 666 0
DWIDTH 16 0
BBX 16 25 0 -3
BITMAP
0000
0000
0000
0000
0000
0000
0000
0000
0000
0000
0000
0C00
1E00
1E00
1C00
3DF0
35E0
7BE0
7680
3580
13C0
0BE0
07F0
07F8
0000
ENDCHAR
STARTCHAR C357
ENCODING 239
SWIDTH 666 0
DWIDTH 16 0
BBX 16 25 0 -3
BITMAP
0000
0000
0000
0000
0000
0000
0000
0000
0000
0000
0300
0600
0C00
1800
3380
3540
5BA0
0C40
0780
07C0
07C0
06C0
0C60
0000
0000
ENDCHAR
STARTCHAR C360
ENCODING 240
SWIDTH 666 0
DWIDTH 16 0
BBX 16 25 0 -3
BITMAP
0000
0000
0000
0000
0000
0000
0000
0000
0000
3FF0
1AE0
0FC0
0FC0
0780
0780
0780
0780
0300
0300
0300
0300
0200
0200
0000
0000
ENDCHAR
STARTCHAR C361
ENCODING 241
SWIDTH 666 0
DWIDTH 16 0
BBX 16 25 0 -3
BITMAP
0000
0000
0000
0000
0000
0000
0000
0000
0000
0000
0000
0000
003A
01FD
07FC
2BFC
3BFE
3DFE
6DFC
6DEC
FB8C
F580
6580
0000
0000
ENDCHAR
STARTCHAR C362
ENCODING 242
SWIDTH 666 0
DWIDTH 16 0
BBX 16 25 0 -3
BITMAP
0000
0000
0000
0000
0000
0000
0000
0000
0000
0000
0000
0000
0000
0000
0000
25F8
3FFC
2BFE
2BFE
17B6
7F66
336C
0618
0030
0000
ENDCHAR
STARTCHAR C363
ENCODING 243
SWIDTH 666 0
DWIDTH 16 0
BBX 16 25 0 -3
BITMAP
0000
0000
0000
0000
0000
0000
0000
0000
0000
0000
0000
0000
0000
0000
0080
0100
02E0
11F0
0FE2
1F9C
3EE0
2A98
0A44
0220
0000
ENDCHAR
STARTCHAR C364
ENCODING 244
SWIDTH 666 0
DWIDTH 16 0
BBX 16 25 0 -3
BITMAP
0000
0000
0000
0000
0000
0000
0000
0000
0000
0000
0000
0000
0000
0000
0000
0000
0000
0000
0000
0000
0000
0AA8
1FFC
199C
7FFF
ENDCHAR
STARTCHAR C365
ENCODING 245
SWIDTH 666 0
DWIDTH 16 0
BBX 16 25 0 -3
BITMAP
0000
0000
0000
0000
0000
0000
0000
0000
0000
0000
0300
0780
1D80
3F80
3B80
0780
0FF8
1FFC
1FFA
120A
1228
1228
0208
0000
0000
ENDCHAR
STARTCHAR C366
ENCODING 246
SWIDTH 666 0
DWIDTH 16 0
BBX 16 25 0 -3
BITMAP
0000
0000
0000
0000
0000
0000
0000
0000
0000
0000
0000
09E0
13F0
27C8
6EE4
7DF0
7C38
745C
387C
1F7C
4EEC
27C8
1F90
0F20
0000
ENDCHAR
STARTCHAR C367
ENCODING 247
SWIDTH 666 0
DWIDTH 16 0
BBX 16 25 0 -3
BITMAP
0000
0000
0000
0000
0000
0000
0000
0000
0000
0000
0000
0380
07C0
07C0
0FE0
0BA0
0FE0
07C6
07CE
07FC
03F8
01F0
0000
0000
0000
ENDCHAR
STARTCHAR C370
ENCODING 248
SWIDTH 666 0
DWIDTH 16 0
BBX 16 25 0 -3
BITMAP
0000
0000
0000
0000
0000
0000
0000
0000
0000
0000
0000
0018
003C
003C
0338
0CC0
03E0
0790
7F40
5F20
7F80
1E80
3B80
1000
0000
ENDCHAR
STARTCHAR C371
ENCODING 249
SWIDTH 666 0
DWIDTH 16 0
BBX 16 25 0 -3
BITMAP
0000
0000
0000
0000
0000
0000
0000
0000
0000
0000
0180
0180
1BD8
0FF0
07E0
1FF8
7FFE
1FF8
07E0
0FF0
1BD8
0180
0180
0000
0000
ENDCHAR
STARTCHAR C372
ENCODING 250
SWIDTH 666 0
DWIDTH 16 0
BBX 16 25 0 -3
BITMAP
0000
0000
0000
0000
0000
0000
0000
0000
0000
0000
0000
0080
0DC0
0FE0
1EB8
3F9C
2F7C
02F8
35D8
7FD8
67E0
0FF0
1C30
3E78
0000
ENDCHAR
STARTCHAR C373
ENCODING 251
SWIDTH 666 0
DWIDTH 16 0
BBX 16 25 0 -3
BITMAP
0000
0000
0000
0000
0000
0000
0000
0000
0000
0000
07C0
0EE0
1C70
1830
3EF8
3EF8
3EF8
3EF8
3C78
1830
1930
0FE0
07C0
0000
0000
ENDCHAR
STARTCHAR C374
ENCODING 252
SWIDTH 666 0
DWIDTH 16 0
BBX 16 25 0 -3
BITMAP
0000
0000
0000
0000
0000
0000
0000
0000
0000
0000
0000
03C0
0FF0
1FF8
3FFC
334C
3554
334C
355C
355C
3FFC
3BDC
3ADC
F2CF
0000
ENDCHAR
STARTCHAR C375
ENCODING 253
SWIDTH 666 0
DWIDTH 16 0
BBX 16 25 0 -3
BITMAP
0000
0000
0000
0000
0000
0000
0000
0000
0000
0000
07C0
0CE0
1FF0
1CF0
3FF8
3CF8
3FF8
3CF8
3878
1A70
1CF0
0FE0
07C0
0000
0000
ENDCHAR
STARTCHAR C376
ENCODING 254
SWIDTH 666 0
DWIDTH 16 0
BBX 16 25 0 -3
BITMAP
0000
0000
0000
0000
0000
0000
0000
0000
0000
00F8
03C0
0700
0600
0600
030C
01BF
00E1
1FB0
7E18
E008
C008
C018
E030
7FE0
1F00
ENDCHAR
STARTCHAR C377
ENCODING 255
SWIDTH 666 0
DWIDTH 16 0
BBX 16 25 0 -3
BITMAP
0000
0000
0000
0000
0000
0000
0000
0000
0000
A421
5EC6
ED18
4D60
5180
EA00
7C00
2800
4800
7000
9000
2000
2000
4000
4000
8000
ENDCHAR
ENDFONT
